# xmcd CD database file
#
# Track frame offsets:
#	150
#	15959
#	34143
#	49307
#	68703
#	83299
#	102322
#	120001
#	128572
#	142057
#	159861
#	174262
#	192505
#
# Disc length: 2675 seconds
#
# Revision: 0
# Processed by: cddbd v1.5.2PL0 Copyright (c) Steve Scherf et al.
# Submitted via: CDex 1.70beta2
#
DISCID=960a710d
DTITLE=Room 11 - Hmmgumba
DYEAR=2008
DGENRE=Jazz
TTITLE0=Heyheyhey
TTITLE1=What will it be
TTITLE2=Lalala love
TTITLE3=Lookin' at my feet
TTITLE4=Swimmer
TTITLE5=Ode
TTITLE6=Loving morning
TTITLE7=Seeds
TTITLE8=Not Jealous
TTITLE9=Shyness
TTITLE10=Always
TTITLE11=Rainy Day in THe Sun
TTITLE12=A Little Of Me
EXTD=YEAR: 2008
EXTT0=
EXTT1=
EXTT2=
EXTT3=
EXTT4=
EXTT5=
EXTT6=
EXTT7=
EXTT8=
EXTT9=
EXTT10=
EXTT11=
EXTT12=
PLAYORDER=
